<svg width="390" height="176" viewBox="0 0 390 176" fill="none" xmlns="http://www.w3.org/2000/svg">
<g opacity="0.3">
<path d="M232.906 134.02C223.481 136.545 214.327 138.766 205.492 140.665C156.986 151.099 119.637 151.748 94.4835 142.592C68.7492 133.227 56.5136 113.689 58.1123 84.5178C62.9703 -4.04023 75.6218 -61.5111 83.9933 -99.5372C87.7612 -116.653 90.7377 -130.174 91.5858 -140.401C92.9948 -157.42 111.418 -184.45 139.663 -210.945C170.059 -239.456 204.976 -261.145 235.464 -270.45C277.512 -283.283 320.35 -307.848 348.88 -326.196C382.115 -347.57 415.606 -373.264 438.466 -394.93C453.223 -408.917 470.818 -413.973 489.345 -409.552C521.423 -401.895 552.145 -366.877 569.52 -318.168C577.754 -295.081 586.27 -271.205 593.024 -247.774C600.494 -221.868 604.935 -199.305 606.605 -178.799C608.596 -154.313 606.796 -132.033 601.104 -110.693C594.747 -86.8662 583.714 -64.7203 567.374 -42.988C539.467 -5.87167 449.904 49.9908 349.577 92.8596C308.534 110.395 268.753 124.411 232.905 134.016L232.906 134.02ZM463.657 -408.33C454.943 -405.995 446.708 -401.241 439.215 -394.138C416.307 -372.426 382.757 -346.685 349.47 -325.279C320.882 -306.896 277.95 -282.276 235.781 -269.407C205.449 -260.148 170.684 -238.552 140.405 -210.148C112.349 -183.83 94.0566 -157.068 92.6688 -140.305C91.8149 -130.002 88.8311 -116.453 85.055 -99.2972C76.69 -61.3028 64.0534 -3.88834 59.1984 84.5827C57.6285 113.218 69.6244 132.393 94.8567 141.577C119.814 150.659 156.96 149.997 205.265 139.609C247.628 130.498 297.382 113.99 349.15 91.8687C449.323 49.0675 538.703 -6.65226 566.507 -43.6325C582.762 -65.2519 593.735 -87.273 600.056 -110.966C605.717 -132.186 607.508 -154.343 605.525 -178.704C601.809 -224.408 584.873 -271.883 568.499 -317.797C551.249 -366.165 520.823 -400.918 489.094 -408.488C480.333 -410.58 471.785 -410.504 463.658 -408.327L463.657 -408.33Z" fill="white"/>
<path d="M234.011 114.804C226.556 116.801 219.295 118.586 212.251 120.147C167.832 129.992 133.639 130.833 110.616 122.645C87.3443 114.367 76.1725 96.9385 77.4103 70.842C80.5691 -8.0068 91.291 -62.6454 98.3838 -98.7965C101.714 -115.769 104.343 -129.174 105.145 -139.516C106.448 -156.233 123.329 -182.033 149.203 -206.852C176.909 -233.428 209.316 -253.902 238.117 -263.027C276.852 -275.055 316.374 -297.427 342.705 -314.074C373.64 -333.633 403.795 -356.204 425.437 -376.007C439.097 -388.502 455.316 -392.874 472.346 -388.652C501.907 -381.324 530.158 -349.102 546.074 -304.554C561.13 -262.539 576.7 -219.093 580.127 -176.275C581.933 -153.721 580.267 -133.182 575.035 -113.486C569.2 -91.5156 559.091 -71.0858 544.142 -51.0301C518.587 -16.5146 436.402 35.509 344.287 75.4842C305.42 92.3501 267.758 105.765 234.008 114.808L234.011 114.804ZM447.964 -387.626C440.201 -385.546 432.851 -381.404 426.129 -375.256C404.445 -355.415 374.238 -332.8 343.254 -313.213C316.868 -296.533 277.265 -274.116 238.426 -262.054C209.771 -252.974 177.509 -232.588 149.914 -206.117C124.213 -181.464 107.452 -155.914 106.167 -139.437C105.362 -129.035 102.725 -115.605 99.3921 -98.6021C92.3032 -62.4782 81.5935 -7.89169 78.438 70.8851C77.2244 96.4843 88.1666 113.574 110.966 121.683C133.802 129.804 167.807 128.95 212.036 119.148C250.903 110.536 296.496 95.1084 343.889 74.5419C435.856 34.6325 517.867 -17.2547 543.329 -51.644C558.205 -71.594 568.255 -91.9103 574.056 -113.752C579.259 -133.336 580.914 -153.759 579.116 -176.199C575.699 -218.885 560.153 -262.266 545.117 -304.219C529.314 -348.449 501.338 -380.423 472.103 -387.669C463.794 -389.728 455.673 -389.695 447.963 -387.629L447.964 -387.626Z" fill="white"/>
<path d="M235.189 95.6052C229.669 97.0844 224.273 98.429 219.006 99.6379C178.675 108.897 147.634 109.928 126.749 102.707C105.939 95.5151 95.8331 80.1909 96.7152 57.1607C98.1996 -12.4876 106.711 -62.3489 112.926 -98.752C115.747 -115.273 117.973 -128.323 118.714 -138.641C119.928 -155.309 134.896 -179.281 158.753 -202.769C183.779 -227.409 213.678 -246.667 240.779 -255.611C304.981 -275.954 378.595 -327.445 412.415 -357.09C424.979 -368.092 439.828 -371.783 455.365 -367.759C482.404 -360.76 508.179 -331.329 522.635 -290.953C535.713 -254.669 550.531 -213.543 553.658 -173.761C555.276 -153.139 553.748 -134.341 548.978 -116.29C543.663 -96.1748 534.484 -77.463 520.92 -59.0822C509.275 -43.0701 485.244 -23.1698 451.429 -1.53953C418.949 19.2384 379.018 40.4206 339.002 58.1076C302.335 74.3129 266.804 87.1339 235.193 95.6043L235.189 95.6052ZM432.245 -366.933C425.44 -365.11 418.981 -361.577 413.041 -356.374C379.165 -326.676 305.408 -275.09 241.071 -254.704C214.108 -245.804 184.345 -226.627 159.419 -202.089C135.726 -178.761 120.862 -155.015 119.662 -138.573C118.918 -128.209 116.687 -115.139 113.862 -98.5905C107.654 -62.2157 99.1508 -12.394 97.6645 57.1911C96.801 79.7592 106.69 94.7667 127.059 101.807C147.774 108.969 178.636 107.926 218.791 98.7066C254.159 90.5858 295.597 76.2456 338.611 57.2346C378.587 39.5658 418.468 18.4083 450.909 -2.34447C484.622 -23.9098 508.564 -43.7225 520.143 -59.6458C533.639 -77.9297 542.767 -96.5379 548.047 -116.532C552.789 -134.478 554.311 -153.173 552.7 -173.684C549.585 -213.338 534.787 -254.402 521.729 -290.627C507.378 -330.71 481.855 -359.913 455.117 -366.835C447.24 -368.876 439.542 -368.889 432.241 -366.932L432.245 -366.933Z" fill="white"/>
<path d="M236.456 76.4318C232.821 77.4057 229.254 78.3127 225.744 79.152C189.499 87.8223 161.616 89.0482 142.865 82.7955C124.521 76.6773 115.488 63.4522 116.014 43.4884C115.817 -17.6019 122.633 -65.1396 127.612 -99.8476C129.757 -114.805 131.61 -127.721 132.275 -137.761C133.385 -154.134 146.852 -176.91 168.293 -198.679C190.655 -221.38 218.043 -239.43 243.434 -248.193C268.831 -256.433 298.887 -270.833 330.364 -289.84C355.629 -305.095 380.785 -322.712 399.388 -338.172C410.854 -347.688 424.342 -350.695 438.391 -346.862C462.901 -340.178 486.196 -313.54 499.187 -277.342C512.961 -239.386 524.573 -205.201 527.179 -171.237C528.614 -152.548 527.216 -135.486 522.909 -119.08C518.115 -100.824 509.865 -83.826 497.686 -67.12C487.148 -52.3189 465.456 -33.9745 434.955 -14.0712C405.774 4.96865 369.813 24.4425 333.695 40.7631C299.254 56.323 265.887 68.5568 236.451 76.4441L236.456 76.4318ZM416.494 -346.259C410.655 -344.694 405.1 -341.763 399.953 -337.492C381.32 -322.005 356.122 -304.358 330.822 -289.082C299.287 -270.041 269.168 -255.609 243.715 -247.354C218.458 -238.635 191.195 -220.667 168.928 -198.058C147.631 -176.437 134.258 -153.87 133.165 -137.703C132.497 -127.629 130.641 -114.697 128.493 -99.7238C123.518 -65.0432 116.706 -17.5442 116.905 43.497C116.389 63.0384 125.217 75.9737 143.148 81.9515C161.743 88.1524 189.463 86.9178 225.543 78.288C257.421 70.6568 294.695 57.4022 333.336 39.9414C369.414 23.639 405.333 4.19134 434.475 -14.8268C464.884 -34.6679 486.492 -52.9336 496.97 -67.6512C509.086 -84.2692 517.288 -101.168 522.055 -119.316C526.335 -135.625 527.725 -152.591 526.299 -171.177C523.701 -205.028 512.109 -239.151 498.358 -277.049C485.461 -312.98 462.396 -339.406 438.161 -346.014C430.706 -348.047 423.406 -348.114 416.5 -346.264L416.494 -346.259Z" fill="white"/>
<path d="M237.839 57.3024C236.03 57.787 234.242 58.2511 232.468 58.6966C200.311 66.7812 175.58 68.2002 158.962 62.912C143.086 57.8596 135.127 46.7258 135.312 29.8131C133.346 -23.5201 138.598 -69.3685 142.433 -102.845C143.954 -116.118 145.269 -127.582 145.834 -136.879C146.856 -153.214 158.521 -174.248 177.833 -194.589C197.552 -215.357 222.427 -232.19 246.087 -240.77C293.312 -256.53 351.901 -292.501 386.358 -319.252C396.738 -327.294 408.868 -329.615 421.436 -325.965C443.405 -319.586 464.214 -295.744 475.741 -263.739C487.574 -231.4 498.385 -199.799 500.701 -168.724C501.951 -151.971 500.687 -136.646 496.843 -121.886C492.573 -105.485 485.249 -90.2077 474.458 -75.1741C465.029 -61.584 445.671 -44.7865 418.483 -26.6067C392.602 -9.30152 360.605 8.46587 328.388 23.4226C296.21 38.3576 265.043 50.0132 237.84 57.3059L237.839 57.3024ZM400.7 -325.605C395.844 -324.304 391.199 -321.966 386.864 -318.609C352.355 -291.817 293.665 -255.785 246.36 -240C222.827 -231.465 198.067 -214.708 178.434 -194.026C159.25 -173.821 147.67 -152.975 146.66 -136.831C146.093 -127.515 144.777 -116.039 143.256 -102.754C139.422 -69.3044 134.175 -23.4912 136.138 29.8016C135.958 46.3306 143.722 57.1982 159.217 62.1281C175.687 67.3696 200.267 65.9462 232.273 57.8984C260.656 50.7541 293.777 38.5825 328.044 22.6717C360.221 7.73323 392.18 -10.0089 418.029 -27.2942C445.134 -45.4182 464.415 -62.1388 473.791 -75.6508C484.528 -90.6028 491.808 -105.794 496.053 -122.093C499.875 -136.766 501.129 -152.002 499.889 -168.664C497.582 -199.636 486.787 -231.178 474.976 -263.459C463.537 -295.221 442.941 -318.869 421.217 -325.176C414.158 -327.226 407.24 -327.35 400.705 -325.599L400.7 -325.605Z" fill="white"/>
<path d="M239.383 38.2239L239.184 38.2773C211.114 45.7797 189.536 47.3917 175.052 43.0714C161.642 39.0744 154.766 30.0107 154.618 16.1358C150.639 -30.3526 154.506 -75.7736 157.329 -108.938C158.214 -119.324 158.979 -128.292 159.406 -136.004C160.325 -152.068 170.525 -171.934 187.383 -190.505C204.484 -209.342 226.853 -224.965 248.752 -233.357C269.101 -240.383 292.403 -251.235 318.027 -265.609C337.301 -276.424 357.46 -289.082 373.34 -300.343C382.641 -306.915 393.422 -308.549 404.528 -305.066C423.947 -298.977 442.253 -277.93 452.302 -250.138C462.292 -223.127 472.21 -194.396 474.232 -166.21C475.294 -151.388 474.167 -137.809 470.784 -124.685C467.035 -110.144 460.639 -96.58 451.233 -83.2247C434.735 -58.6778 383.226 -22.7717 323.069 6.11561C293.21 20.4554 264.278 31.5533 239.383 38.2239ZM384.834 -304.985C380.975 -303.951 377.266 -302.193 373.772 -299.725C357.873 -288.451 337.685 -275.773 318.391 -264.95C292.731 -250.555 269.385 -239.688 249.005 -232.65C227.226 -224.3 204.964 -208.755 187.939 -189.998C171.194 -171.552 161.068 -151.855 160.156 -135.962C159.727 -128.242 158.964 -119.266 158.077 -108.876C155.254 -75.7381 151.392 -30.3558 155.368 16.0958C155.515 29.6301 162.209 38.4503 175.266 42.3435C189.615 46.6213 211.054 45.009 238.987 37.5432L239.186 37.4898C264.036 30.8314 292.919 19.7502 322.738 5.42861C382.786 -23.4068 434.169 -59.2081 450.606 -83.66C459.964 -96.946 466.321 -110.429 470.049 -124.881C473.409 -137.92 474.531 -151.423 473.477 -166.161C471.462 -194.248 461.56 -222.92 451.591 -249.883C441.618 -277.46 423.498 -298.332 404.3 -304.349C397.607 -306.448 391.029 -306.649 384.84 -304.991L384.834 -304.985Z" fill="white"/>
<path d="M241.038 19.2689C219.404 25.0658 202.625 26.4259 191.118 23.3086C180.177 20.3432 174.39 13.3406 173.915 2.48673C167.329 -38.0317 170.096 -85.3873 172.116 -119.969C172.432 -125.396 172.732 -130.52 172.964 -135.123C173.797 -151.171 182.307 -169.385 196.923 -186.414C211.663 -203.582 231.011 -217.619 251.403 -225.938C265.666 -231.078 304.801 -246.761 360.314 -281.425C368.547 -286.538 378.001 -287.483 387.658 -284.147C404.5 -278.331 420.285 -260.085 428.853 -236.534C437.095 -214.547 446.032 -188.974 447.752 -163.692C449.572 -136.973 443.11 -113.287 427.999 -91.2735C420.776 -80.0841 406.082 -66.3684 385.517 -51.6117C365.93 -37.5591 342.491 -23.5646 317.735 -11.1429C292.169 1.68332 267.321 11.7355 245.878 17.9233C244.239 18.3963 242.623 18.8443 241.035 19.2698L241.038 19.2689ZM368.871 -284.418C366.037 -283.659 363.294 -282.463 360.68 -280.841C351.798 -275.295 333.687 -264.287 312.175 -252.884C289.59 -240.909 269.23 -231.629 251.654 -225.297C231.373 -217.023 212.119 -203.056 197.451 -185.968C182.935 -169.055 174.484 -150.988 173.659 -135.092C173.426 -130.488 173.127 -125.362 172.813 -119.931C170.793 -85.3754 168.028 -38.0541 174.607 2.39507L174.61 2.4354C175.062 12.9657 180.678 19.7632 191.303 22.6409C203.36 25.9068 222.168 24.0478 245.692 17.2575C267.097 11.08 291.901 1.04704 317.431 -11.7619C342.154 -24.1673 365.564 -38.1428 385.123 -52.173C405.619 -66.8776 420.248 -80.5307 427.432 -91.6536C442.457 -113.539 448.878 -137.087 447.072 -163.641C445.358 -188.831 436.439 -214.349 428.214 -236.287C419.714 -259.655 404.092 -277.738 387.44 -283.489C381.06 -285.695 374.768 -285.991 368.88 -284.413L368.871 -284.418Z" fill="white"/>
<path d="M243.406 0.355559C228.044 4.47169 215.633 5.62044 207.172 3.66894C198.675 1.70839 193.982 -3.28322 193.218 -11.1711C182.597 -46.2921 185.352 -107.923 186.525 -134.245C188.051 -167.133 215.822 -201.789 254.059 -218.519C284.878 -230.239 320.034 -248.418 341.04 -259.277C343.27 -260.429 345.364 -261.511 347.298 -262.509C354.484 -266.184 362.644 -266.418 370.883 -263.194C385.113 -257.625 398.34 -242.197 405.408 -222.927C412.858 -203.422 419.934 -182.442 421.276 -161.173C422.708 -138.478 417.311 -118.246 404.771 -99.3195C392.729 -79.6645 356.474 -51.802 312.407 -28.3425C291.218 -17.0638 270.529 -8.07355 252.578 -2.34197C249.417 -1.33394 246.356 -0.431191 243.403 0.359976L243.406 0.355559ZM352.738 -263.94C350.971 -263.467 349.251 -262.804 347.582 -261.952C345.648 -260.958 343.556 -259.876 341.327 -258.721C320.312 -247.856 285.137 -229.664 254.297 -217.939C216.282 -201.305 188.668 -166.874 187.152 -134.215C185.976 -107.917 183.223 -46.3327 193.827 -11.3193L193.843 -11.2598C194.566 -3.64958 199.097 1.16833 207.313 3.06167C217.293 5.36306 232.883 3.28761 252.392 -2.93664C270.309 -8.65536 290.965 -17.6293 312.117 -28.8906C356.089 -52.302 392.251 -80.076 404.247 -99.6513C432.094 -141.678 419.802 -183.481 404.827 -222.7C397.816 -241.813 384.724 -257.101 370.659 -262.605C364.505 -265.014 358.407 -265.452 352.743 -263.934L352.738 -263.94Z" fill="white"/>
</g>
</svg>
